<?xml version="1.0" encoding="UTF-8"?>
<svg id="a" xmlns="http://www.w3.org/2000/svg" viewBox="0 0 64 64">
  <defs>
    <style>
      .cls-1 {
        fill: #d17dfe;
      }

      .cls-1, .cls-2, .cls-3 {
        stroke-width: 0px;
      }

      .cls-2 {
        fill: #481a54;
      }

      .cls-3 {
        fill: #fff;
      }
    </style>
  </defs>
  <path class="cls-2" d="M32,26.16c3.15,0,5.7-2.55,5.7-5.7s-2.55-5.7-5.7-5.7-5.7,2.55-5.7,5.7,2.55,5.7,5.7,5.7Z"/>
  <path class="cls-3" d="M32,22.36c1.05,0,1.9-.85,1.9-1.9s-.85-1.9-1.9-1.9-1.9.85-1.9,1.9.85,1.9,1.9,1.9Z"/>
  <path class="cls-2" d="M22.03,29.39c.38.38.85.66,1.42.66.47,0,.95-.19,1.33-.47.76-.66.85-1.9.1-2.66-3.13-3.61-3.13-9.02,0-12.63.66-.76.66-1.99-.19-2.66-.85-.66-1.99-.66-2.66.19-4.46,4.94-4.46,12.54,0,17.57Z"/>
  <path class="cls-2" d="M38.65,28.15c0,1.04.85,1.9,1.9,1.9.57,0,1.04-.19,1.42-.66,4.46-5.03,4.46-12.73,0-17.76-.66-.76-1.9-.85-2.75-.19-.85.66-.85,1.9-.1,2.66,3.13,3.61,3.13,9.02,0,12.63-.28.47-.47.95-.47,1.42Z"/>
  <path class="cls-2" d="M46.63,5.92c-.76-.76-1.99-.66-2.66,0-.66.66-.66,1.99,0,2.66.19.19.38.38.57.57,6.27,6.55,5.98,17-.57,23.27-.38.38-.57.95-.57,1.42,0,1.04.85,1.9,1.9,1.9.47,0,.95-.19,1.33-.57.19-.19.47-.47.66-.66,7.69-8.07,7.41-20.9-.66-28.59Z"/>
  <path class="cls-2" d="M20.03,35.18c.76-.76.66-1.99-.1-2.66-.19-.19-.38-.38-.57-.57-6.17-6.65-5.89-17.1.66-23.37.76-.76.76-1.9,0-2.66s-1.9-.76-2.66,0c-.19.19-.47.47-.66.66-7.69,8.07-7.41,20.9.66,28.69.38.28.85.47,1.33.47s1.04-.19,1.33-.57Z"/>
  <path class="cls-2" d="M37.6,32.24c-.28-.76-.95-1.23-1.8-1.23h-7.6c-.76,0-1.52.47-1.8,1.23l-8.55,23.75c-.19.66-.1,1.33.38,1.9.66.76,1.9.95,2.66.19l11.11-9.31,11.11,9.4c.38.29.76.48,1.23.48.19,0,.47,0,.66-.1.95-.38,1.52-1.42,1.14-2.47l-8.55-23.84Z"/>
  <path class="cls-1" d="M23.83,50.67l2.47-6.74,2.75,2.28-5.22,4.46Z"/>
  <path class="cls-1" d="M27.63,40.12l1.9-5.32h4.94l1.9,5.32-4.37,3.61-4.37-3.61Z"/>
  <path class="cls-1" d="M34.94,46.2l2.75-2.28,2.47,6.74-5.22-4.46Z"/>
</svg>