<?xml version="1.0" encoding="UTF-8"?>
<svg id="a" xmlns="http://www.w3.org/2000/svg" viewBox="0 0 64 64">
  <defs>
    <style>
      .cls-1 {
        fill: #d17dfe;
      }

      .cls-1, .cls-2, .cls-3 {
        stroke-width: 0px;
      }

      .cls-2 {
        fill: #481a54;
      }

      .cls-3 {
        fill: #fff;
      }
    </style>
  </defs>
  <path class="cls-2" d="M41.47,5.48h-18.94c-9.57,0-17.05,11.65-17.05,26.52s7.48,26.52,17.05,26.52h18.94c9.57,0,17.05-11.65,17.05-26.52s-7.48-26.52-17.05-26.52Z"/>
  <path class="cls-1" d="M52.36,44.69l-7.1,2.37-7.58-3.03c.76-2.27,1.23-4.74,1.52-7.29l7.96,3.6c.28.09.47.19.76.19s.66-.09.95-.19l5.3-2.94c-.19,2.56-.85,5.11-1.8,7.29Z"/>
  <path class="cls-1" d="M41.47,54.73h-10.04c1.99-1.8,3.69-4.26,5.02-7.2l8.15,3.22c.19.19.38.19.66.19.19,0,.38,0,.57-.09l3.88-1.33c-2.18,3.22-5.11,5.21-8.24,5.21Z"/>
  <path class="cls-1" d="M22.53,54.73c7.32,0,13.26-10.18,13.26-22.73s-5.94-22.73-13.26-22.73-13.26,10.18-13.26,22.73,5.94,22.73,13.26,22.73Z"/>
  <path class="cls-1" d="M41.47,9.27c2.37,0,4.64,1.14,6.54,3.13l-2.94,1.52-12.6-3.6h-.09c-.28-.38-.66-.66-.95-.95h10.04v-.09Z"/>
  <path class="cls-1" d="M54.73,32v.76l-6.72,3.69-8.43-3.79v-.66c0-2.08-.19-4.07-.38-5.97l8.33,3.03c.09.09.38.09.57.09.38,0,.66-.09.95-.28l5.21-2.94c.28,1.99.47,3.98.47,6.06Z"/>
  <path class="cls-1" d="M53.31,22.06l-5.4,3.13-9.57-3.5h-.09c-.66-2.37-1.52-4.55-2.46-6.54l8.9,2.56c.19.09.38.09.57.09.28,0,.57-.09.85-.19l4.36-2.18c1.14,1.89,2.18,4.17,2.84,6.63Z"/>
  <path class="cls-2" d="M22.53,43.37c4.18,0,7.58-5.09,7.58-11.37s-3.39-11.37-7.58-11.37-7.58,5.09-7.58,11.37,3.39,11.37,7.58,11.37Z"/>
  <path class="cls-3" d="M22.53,39.58c2.09,0,3.79-3.39,3.79-7.58s-1.7-7.58-3.79-7.58-3.79,3.39-3.79,7.58,1.7,7.58,3.79,7.58Z"/>
</svg>